<svg xmlns="http://www.w3.org/2000/svg" width="16" height="16" viewBox="0 0 16 16" fill="none">
  <path d="M7.29289 7.29289C6.90237 7.68342 6.90237 8.31658 7.29289 8.70711L13.6569 15.0711C14.0474 15.4616 14.6805 15.4616 15.0711 15.0711C15.4616 14.6805 15.4616 14.0474 15.0711 13.6569L9.41421 8L15.0711 2.34315C15.4616 1.95262 15.4616 1.31946 15.0711 0.928932C14.6805 0.538408 14.0474 0.538408 13.6569 0.928932L7.29289 7.29289ZM8.70721 8.70711C9.09773 8.31658 9.09773 7.68342 8.70721 7.29289L2.34325 0.928932C1.95272 0.538408 1.31956 0.538408 0.929032 0.928932C0.538508 1.31946 0.538508 1.95262 0.929032 2.34315L6.58589 8L0.929032 13.6569C0.538508 14.0474 0.538508 14.6805 0.929032 15.0711C1.31956 15.4616 1.95272 15.4616 2.34325 15.0711L8.70721 8.70711ZM8 9H8.0001V7H8V9Z" fill="white"/>
</svg>